<svg width="23" height="26" viewBox="0 0 23 26" fill="none" xmlns="http://www.w3.org/2000/svg">
<path fill-rule="evenodd" clip-rule="evenodd" d="M22.9989 25.1345C22.9989 21.5049 16.3796 17.5044 14.4751 17.1843C13.8837 17.0849 13.8705 15.3689 13.8705 15.3689C14.5616 14.1706 15.2253 12.77 15.7827 11.3117C16.7476 8.70364 17.926 0 11.5115 0C5.097 0 6.64449 9.69396 7.03547 11.113C7.42646 12.532 9.15247 15.3677 9.15247 15.3677C9.15247 15.3677 9.13933 17.0803 8.54683 17.1831C6.6423 17.5032 0 21.5037 0 25.1333C0 25.1333 1.84867 26 11.5684 26C21.2882 26 23 25.1333 23 25.1333L22.9989 25.1345Z" fill="black"/>
</svg>
