<svg width="350" height="350" viewBox="0 0 350 350" fill="none" xmlns="http://www.w3.org/2000/svg">
<rect width="350" height="350" fill="white"/>
<path d="M10 10H20V20H10V10ZM20 10H30V20H20V10ZM30 10H40V20H30V10ZM40 10H50V20H40V10ZM50 10H60V20H50V10ZM60 10H70V20H60V10ZM70 10H80V20H70V10ZM110 10H120V20H110V10ZM180 10H190V20H180V10ZM190 10H200V20H190V10ZM200 10H210V20H200V10ZM210 10H220V20H210V10ZM240 10H250V20H240V10ZM270 10H280V20H270V10ZM280 10H290V20H280V10ZM290 10H300V20H290V10ZM300 10H310V20H300V10ZM310 10H320V20H310V10ZM320 10H330V20H320V10ZM330 10H340V20H330V10ZM10 20H20V30H10V20ZM70 20H80V30H70V20ZM90 20H100V30H90V20ZM100 20H110V30H100V20ZM120 20H130V30H120V20ZM140 20H150V30H140V20ZM160 20H170V30H160V20ZM170 20H180V30H170V20ZM190 20H200V30H190V20ZM210 20H220V30H210V20ZM220 20H230V30H220V20ZM230 20H240V30H230V20ZM240 20H250V30H240V20ZM250 20H260V30H250V20ZM270 20H280V30H270V20ZM330 20H340V30H330V20ZM10 30H20V40H10V30ZM30 30H40V40H30V30ZM40 30H50V40H40V30ZM50 30H60V40H50V30ZM70 30H80V40H70V30ZM90 30H100V40H90V30ZM110 30H120V40H110V30ZM120 30H130V40H120V30ZM170 30H180V40H170V30ZM180 30H190V40H180V30ZM210 30H220V40H210V30ZM240 30H250V40H240V30ZM270 30H280V40H270V30ZM290 30H300V40H290V30ZM300 30H310V40H300V30ZM310 30H320V40H310V30ZM330 30H340V40H330V30ZM10 40H20V50H10V40ZM30 40H40V50H30V40ZM40 40H50V50H40V40ZM50 40H60V50H50V40ZM70 40H80V50H70V40ZM100 40H110V50H100V40ZM110 40H120V50H110V40ZM130 40H140V50H130V40ZM160 40H170V50H160V40ZM170 40H180V50H170V40ZM200 40H210V50H200V40ZM230 40H240V50H230V40ZM250 40H260V50H250V40ZM270 40H280V50H270V40ZM290 40H300V50H290V40ZM300 40H310V50H300V40ZM310 40H320V50H310V40ZM330 40H340V50H330V40ZM10 50H20V60H10V50ZM30 50H40V60H30V50ZM40 50H50V60H40V50ZM50 50H60V60H50V50ZM70 50H80V60H70V50ZM100 50H110V60H100V50ZM120 50H130V60H120V50ZM160 50H170V60H160V50ZM210 50H220V60H210V50ZM220 50H230V60H220V50ZM230 50H240V60H230V50ZM270 50H280V60H270V50ZM290 50H300V60H290V50ZM300 50H310V60H300V50ZM310 50H320V60H310V50ZM330 50H340V60H330V50ZM10 60H20V70H10V60ZM70 60H80V70H70V60ZM100 60H110V70H100V60ZM110 60H120V70H110V60ZM120 60H130V70H120V60ZM140 60H150V70H140V60ZM170 60H180V70H170V60ZM180 60H190V70H180V60ZM190 60H200V70H190V60ZM200 60H210V70H200V60ZM210 60H220V70H210V60ZM230 60H240V70H230V60ZM270 60H280V70H270V60ZM330 60H340V70H330V60ZM10 70H20V80H10V70ZM20 70H30V80H20V70ZM30 70H40V80H30V70ZM40 70H50V80H40V70ZM50 70H60V80H50V70ZM60 70H70V80H60V70ZM70 70H80V80H70V70ZM90 70H100V80H90V70ZM110 70H120V80H110V70ZM130 70H140V80H130V70ZM150 70H160V80H150V70ZM170 70H180V80H170V70ZM190 70H200V80H190V70ZM210 70H220V80H210V70ZM230 70H240V80H230V70ZM250 70H260V80H250V70ZM270 70H280V80H270V70ZM280 70H290V80H280V70ZM290 70H300V80H290V70ZM300 70H310V80H300V70ZM310 70H320V80H310V70ZM320 70H330V80H320V70ZM330 70H340V80H330V70ZM100 80H110V90H100V80ZM130 80H140V90H130V80ZM150 80H160V90H150V80ZM160 80H170V90H160V80ZM180 80H190V90H180V80ZM190 80H200V90H190V80ZM250 80H260V90H250V80ZM20 90H30V100H20V90ZM30 90H40V100H30V90ZM40 90H50V100H40V90ZM60 90H70V100H60V90ZM70 90H80V100H70V90ZM110 90H120V100H110V90ZM120 90H130V100H120V90ZM140 90H150V100H140V90ZM160 90H170V100H160V90ZM180 90H190V100H180V90ZM190 90H200V100H190V90ZM200 90H210V100H200V90ZM220 90H230V100H220V90ZM310 90H320V100H310V90ZM320 90H330V100H320V90ZM10 100H20V110H10V100ZM20 100H30V110H20V100ZM30 100H40V110H30V100ZM40 100H50V110H40V100ZM50 100H60V110H50V100ZM80 100H90V110H80V100ZM100 100H110V110H100V100ZM110 100H120V110H110V100ZM130 100H140V110H130V100ZM150 100H160V110H150V100ZM190 100H200V110H190V100ZM200 100H210V110H200V100ZM220 100H230V110H220V100ZM240 100H250V110H240V100ZM270 100H280V110H270V100ZM280 100H290V110H280V100ZM300 100H310V110H300V100ZM310 100H320V110H310V100ZM330 100H340V110H330V100ZM20 110H30V120H20V110ZM40 110H50V120H40V110ZM50 110H60V120H50V110ZM70 110H80V120H70V110ZM80 110H90V120H80V110ZM130 110H140V120H130V110ZM140 110H150V120H140V110ZM180 110H190V120H180V110ZM240 110H250V120H240V110ZM250 110H260V120H250V110ZM260 110H270V120H260V110ZM270 110H280V120H270V110ZM280 110H290V120H280V110ZM290 110H300V120H290V110ZM300 110H310V120H300V110ZM320 110H330V120H320V110ZM330 110H340V120H330V110ZM10 120H20V130H10V120ZM20 120H30V130H20V120ZM40 120H50V130H40V120ZM110 120H120V130H110V120ZM190 120H200V130H190V120ZM200 120H210V130H200V120ZM210 120H220V130H210V120ZM230 120H240V130H230V120ZM240 120H250V130H240V120ZM280 120H290V130H280V120ZM300 120H310V130H300V120ZM320 120H330V130H320V120ZM20 130H30V140H20V130ZM30 130H40V140H30V130ZM40 130H50V140H40V130ZM50 130H60V140H50V130ZM60 130H70V140H60V130ZM70 130H80V140H70V130ZM80 130H90V140H80V130ZM90 130H100V140H90V130ZM130 130H140V140H130V130ZM150 130H160V140H150V130ZM190 130H200V140H190V130ZM230 130H240V140H230V130ZM250 130H260V140H250V130ZM280 130H290V140H280V130ZM290 130H300V140H290V130ZM300 130H310V140H300V130ZM320 130H330V140H320V130ZM330 130H340V140H330V130ZM10 140H20V150H10V140ZM20 140H30V150H20V140ZM40 140H50V150H40V140ZM100 140H110V150H100V140ZM140 140H150V150H140V140ZM160 140H170V150H160V140ZM190 140H200V150H190V140ZM200 140H210V150H200V140ZM240 140H250V150H240V140ZM250 140H260V150H250V140ZM280 140H290V150H280V140ZM300 140H310V150H300V140ZM310 140H320V150H310V140ZM320 140H330V150H320V140ZM20 150H30V160H20V150ZM30 150H40V160H30V150ZM40 150H50V160H40V150ZM50 150H60V160H50V150ZM70 150H80V160H70V150ZM90 150H100V160H90V150ZM100 150H110V160H100V150ZM120 150H130V160H120V150ZM130 150H140V160H130V150ZM140 150H150V160H140V150ZM200 150H210V160H200V150ZM250 150H260V160H250V150ZM270 150H280V160H270V150ZM280 150H290V160H280V150ZM290 150H300V160H290V150ZM300 150H310V160H300V150ZM20 160H30V170H20V160ZM30 160H40V170H30V160ZM50 160H60V170H50V160ZM80 160H90V170H80V160ZM90 160H100V170H90V160ZM180 160H190V170H180V160ZM220 160H230V170H220V160ZM230 160H240V170H230V160ZM240 160H250V170H240V160ZM250 160H260V170H250V160ZM260 160H270V170H260V160ZM270 160H280V170H270V160ZM290 160H300V170H290V160ZM300 160H310V170H300V160ZM310 160H320V170H310V160ZM20 170H30V180H20V170ZM30 170H40V180H30V170ZM50 170H60V180H50V170ZM60 170H70V180H60V170ZM70 170H80V180H70V170ZM80 170H90V180H80V170ZM90 170H100V180H90V170ZM100 170H110V180H100V170ZM110 170H120V180H110V170ZM120 170H130V180H120V170ZM140 170H150V180H140V170ZM150 170H160V180H150V170ZM170 170H180V180H170V170ZM200 170H210V180H200V170ZM210 170H220V180H210V170ZM220 170H230V180H220V170ZM230 170H240V180H230V170ZM240 170H250V180H240V170ZM250 170H260V180H250V170ZM260 170H270V180H260V170ZM270 170H280V180H270V170ZM290 170H300V180H290V170ZM300 170H310V180H300V170ZM310 170H320V180H310V170ZM10 180H20V190H10V180ZM20 180H30V190H20V180ZM30 180H40V190H30V180ZM40 180H50V190H40V180ZM80 180H90V190H80V180ZM110 180H120V190H110V180ZM180 180H190V190H180V180ZM210 180H220V190H210V180ZM220 180H230V190H220V180ZM230 180H240V190H230V180ZM240 180H250V190H240V180ZM250 180H260V190H250V180ZM270 180H280V190H270V180ZM290 180H300V190H290V180ZM300 180H310V190H300V180ZM320 180H330V190H320V180ZM330 180H340V190H330V180ZM10 190H20V200H10V190ZM20 190H30V200H20V190ZM30 190H40V200H30V190ZM60 190H70V200H60V190ZM70 190H80V200H70V190ZM80 190H90V200H80V190ZM90 190H100V200H90V190ZM110 190H120V200H110V190ZM130 190H140V200H130V190ZM140 190H150V200H140V190ZM150 190H160V200H150V190ZM160 190H170V200H160V190ZM170 190H180V200H170V190ZM180 190H190V200H180V190ZM190 190H200V200H190V190ZM230 190H240V200H230V190ZM250 190H260V200H250V190ZM260 190H270V200H260V190ZM270 190H280V200H270V190ZM280 190H290V200H280V190ZM290 190H300V200H290V190ZM310 190H320V200H310V190ZM320 190H330V200H320V190ZM40 200H50V210H40V200ZM50 200H60V210H50V200ZM80 200H90V210H80V200ZM90 200H100V210H90V200ZM110 200H120V210H110V200ZM120 200H130V210H120V200ZM140 200H150V210H140V200ZM190 200H200V210H190V200ZM200 200H210V210H200V200ZM230 200H240V210H230V200ZM260 200H270V210H260V200ZM290 200H300V210H290V200ZM320 200H330V210H320V200ZM330 200H340V210H330V200ZM30 210H40V220H30V210ZM50 210H60V220H50V210ZM70 210H80V220H70V210ZM90 210H100V220H90V210ZM160 210H170V220H160V210ZM170 210H180V220H170V210ZM180 210H190V220H180V210ZM190 210H200V220H190V210ZM200 210H210V220H200V210ZM220 210H230V220H220V210ZM250 210H260V220H250V210ZM300 210H310V220H300V210ZM310 210H320V220H310V210ZM10 220H20V230H10V220ZM60 220H70V230H60V220ZM130 220H140V230H130V220ZM140 220H150V230H140V220ZM150 220H160V230H150V220ZM170 220H180V230H170V220ZM200 220H210V230H200V220ZM210 220H220V230H210V220ZM220 220H230V230H220V220ZM230 220H240V230H230V220ZM240 220H250V230H240V220ZM250 220H260V230H250V220ZM300 220H310V230H300V220ZM330 220H340V230H330V220ZM30 230H40V240H30V230ZM60 230H70V240H60V230ZM70 230H80V240H70V230ZM80 230H90V240H80V230ZM100 230H110V240H100V230ZM130 230H140V240H130V230ZM150 230H160V240H150V230ZM160 230H170V240H160V230ZM230 230H240V240H230V230ZM240 230H250V240H240V230ZM250 230H260V240H250V230ZM270 230H280V240H270V230ZM290 230H300V240H290V230ZM300 230H310V240H300V230ZM310 230H320V240H310V230ZM320 230H330V240H320V230ZM330 230H340V240H330V230ZM20 240H30V250H20V240ZM30 240H40V250H30V240ZM40 240H50V250H40V240ZM50 240H60V250H50V240ZM60 240H70V250H60V240ZM80 240H90V250H80V240ZM110 240H120V250H110V240ZM120 240H130V250H120V240ZM130 240H140V250H130V240ZM140 240H150V250H140V240ZM150 240H160V250H150V240ZM160 240H170V250H160V240ZM170 240H180V250H170V240ZM180 240H190V250H180V240ZM190 240H200V250H190V240ZM230 240H240V250H230V240ZM240 240H250V250H240V240ZM250 240H260V250H250V240ZM260 240H270V250H260V240ZM280 240H290V250H280V240ZM300 240H310V250H300V240ZM320 240H330V250H320V240ZM10 250H20V260H10V250ZM60 250H70V260H60V250ZM70 250H80V260H70V250ZM90 250H100V260H90V250ZM140 250H150V260H140V250ZM150 250H160V260H150V250ZM160 250H170V260H160V250ZM210 250H220V260H210V250ZM230 250H240V260H230V250ZM240 250H250V260H240V250ZM250 250H260V260H250V250ZM260 250H270V260H260V250ZM270 250H280V260H270V250ZM280 250H290V260H280V250ZM290 250H300V260H290V250ZM320 250H330V260H320V250ZM330 250H340V260H330V250ZM90 260H100V270H90V260ZM110 260H120V270H110V260ZM130 260H140V270H130V260ZM170 260H180V270H170V260ZM190 260H200V270H190V260ZM200 260H210V270H200V260ZM230 260H240V270H230V260ZM250 260H260V270H250V260ZM290 260H300V270H290V260ZM300 260H310V270H300V260ZM10 270H20V280H10V270ZM20 270H30V280H20V270ZM30 270H40V280H30V270ZM40 270H50V280H40V270ZM50 270H60V280H50V270ZM60 270H70V280H60V270ZM70 270H80V280H70V270ZM100 270H110V280H100V270ZM110 270H120V280H110V270ZM120 270H130V280H120V270ZM130 270H140V280H130V270ZM170 270H180V280H170V270ZM180 270H190V280H180V270ZM190 270H200V280H190V270ZM200 270H210V280H200V270ZM210 270H220V280H210V270ZM220 270H230V280H220V270ZM230 270H240V280H230V270ZM240 270H250V280H240V270ZM250 270H260V280H250V270ZM270 270H280V280H270V270ZM290 270H300V280H290V270ZM10 280H20V290H10V280ZM70 280H80V290H70V280ZM90 280H100V290H90V280ZM110 280H120V290H110V280ZM140 280H150V290H140V280ZM160 280H170V290H160V280ZM180 280H190V290H180V280ZM190 280H200V290H190V280ZM220 280H230V290H220V280ZM240 280H250V290H240V280ZM250 280H260V290H250V280ZM290 280H300V290H290V280ZM300 280H310V290H300V280ZM310 280H320V290H310V280ZM330 280H340V290H330V280ZM10 290H20V300H10V290ZM30 290H40V300H30V290ZM40 290H50V300H40V290ZM50 290H60V300H50V290ZM70 290H80V300H70V290ZM100 290H110V300H100V290ZM110 290H120V300H110V290ZM120 290H130V300H120V290ZM130 290H140V300H130V290ZM140 290H150V300H140V290ZM150 290H160V300H150V290ZM160 290H170V300H160V290ZM180 290H190V300H180V290ZM190 290H200V300H190V290ZM200 290H210V300H200V290ZM210 290H220V300H210V290ZM220 290H230V300H220V290ZM230 290H240V300H230V290ZM240 290H250V300H240V290ZM250 290H260V300H250V290ZM260 290H270V300H260V290ZM270 290H280V300H270V290ZM280 290H290V300H280V290ZM290 290H300V300H290V290ZM310 290H320V300H310V290ZM320 290H330V300H320V290ZM10 300H20V310H10V300ZM30 300H40V310H30V300ZM40 300H50V310H40V300ZM50 300H60V310H50V300ZM70 300H80V310H70V300ZM90 300H100V310H90V300ZM150 300H160V310H150V300ZM180 300H190V310H180V300ZM210 300H220V310H210V300ZM240 300H250V310H240V300ZM250 300H260V310H250V300ZM280 300H290V310H280V300ZM310 300H320V310H310V300ZM320 300H330V310H320V300ZM330 300H340V310H330V300ZM10 310H20V320H10V310ZM30 310H40V320H30V310ZM40 310H50V320H40V310ZM50 310H60V320H50V310ZM70 310H80V320H70V310ZM90 310H100V320H90V310ZM110 310H120V320H110V310ZM130 310H140V320H130V310ZM140 310H150V320H140V310ZM160 310H170V320H160V310ZM210 310H220V320H210V310ZM240 310H250V320H240V310ZM270 310H280V320H270V310ZM280 310H290V320H280V310ZM300 310H310V320H300V310ZM10 320H20V330H10V320ZM70 320H80V330H70V320ZM90 320H100V330H90V320ZM100 320H110V330H100V320ZM120 320H130V330H120V320ZM130 320H140V330H130V320ZM140 320H150V330H140V320ZM170 320H180V330H170V320ZM200 320H210V330H200V320ZM210 320H220V330H210V320ZM240 320H250V330H240V320ZM260 320H270V330H260V320ZM270 320H280V330H270V320ZM280 320H290V330H280V320ZM290 320H300V330H290V320ZM300 320H310V330H300V320ZM330 320H340V330H330V320ZM10 330H20V340H10V330ZM20 330H30V340H20V330ZM30 330H40V340H30V330ZM40 330H50V340H40V330ZM50 330H60V340H50V330ZM60 330H70V340H60V330ZM70 330H80V340H70V330ZM100 330H110V340H100V330ZM150 330H160V340H150V330ZM160 330H170V340H160V330ZM170 330H180V340H170V330ZM190 330H200V340H190V330ZM200 330H210V340H200V330ZM220 330H230V340H220V330ZM240 330H250V340H240V330ZM290 330H300V340H290V330ZM310 330H320V340H310V330Z" fill="black" stroke="black"/>
</svg>
