<svg width="1068" height="8" viewBox="0 0 1068 8" fill="none" xmlns="http://www.w3.org/2000/svg">
<circle cx="4" cy="4" r="4" fill="#DC0027"/>
<circle cx="574" cy="4" r="4" fill="#DC0027"/>
<circle cx="188" cy="4" r="4" fill="#DC0027"/>
<circle cx="390" cy="4" r="4" fill="#DC0027"/>
<circle cx="758" cy="4" r="4" fill="#DC0027"/>
<circle cx="24" cy="4" r="2" fill="#C9CACB"/>
<circle cx="60" cy="4" r="2" fill="#C9CACB"/>
<circle cx="42" cy="4" r="2" fill="#C9CACB"/>
<circle cx="96" cy="4" r="2" fill="#C9CACB"/>
<circle cx="114" cy="4" r="2" fill="#C9CACB"/>
<circle cx="132" cy="4" r="2" fill="#C9CACB"/>
<circle cx="150" cy="4" r="2" fill="#C9CACB"/>
<circle cx="168" cy="4" r="2" fill="#C9CACB"/>
<circle cx="244" cy="4" r="2" fill="#C9CACB"/>
<circle cx="208" cy="4" r="2" fill="#C9CACB"/>
<circle cx="226" cy="4" r="2" fill="#C9CACB"/>
<circle cx="262" cy="4" r="2" fill="#C9CACB"/>
<circle cx="280" cy="4" r="2" fill="#C9CACB"/>
<circle cx="298" cy="4" r="2" fill="#C9CACB"/>
<circle cx="316" cy="4" r="2" fill="#C9CACB"/>
<circle cx="334" cy="4" r="2" fill="#C9CACB"/>
<circle cx="352" cy="4" r="2" fill="#C9CACB"/>
<circle cx="370" cy="4" r="2" fill="#C9CACB"/>
<circle cx="78" cy="4" r="2" fill="#C9CACB"/>
<circle cx="410" cy="4" r="2" fill="#C9CACB"/>
<circle cx="814" cy="4" r="2" fill="#C9CACB"/>
<circle cx="958" cy="4" r="2" fill="#C9CACB"/>
<circle cx="428" cy="4" r="2" fill="#C9CACB"/>
<circle cx="446" cy="4" r="2" fill="#C9CACB"/>
<circle cx="464" cy="4" r="2" fill="#C9CACB"/>
<circle cx="482" cy="4" r="2" fill="#C9CACB"/>
<circle cx="500" cy="4" r="2" fill="#C9CACB"/>
<circle cx="518" cy="4" r="2" fill="#C9CACB"/>
<circle cx="536" cy="4" r="2" fill="#C9CACB"/>
<circle cx="554" cy="4" r="2" fill="#C9CACB"/>
<circle cx="594" cy="4" r="2" fill="#C9CACB"/>
<circle cx="612" cy="4" r="2" fill="#C9CACB"/>
<circle cx="832" cy="4" r="2" fill="#C9CACB"/>
<circle cx="976" cy="4" r="2" fill="#C9CACB"/>
<circle cx="630" cy="4" r="2" fill="#C9CACB"/>
<circle cx="850" cy="4" r="2" fill="#C9CACB"/>
<circle cx="994" cy="4" r="2" fill="#C9CACB"/>
<circle cx="648" cy="4" r="2" fill="#C9CACB"/>
<circle cx="868" cy="4" r="2" fill="#C9CACB"/>
<circle cx="1012" cy="4" r="2" fill="#C9CACB"/>
<circle cx="666" cy="4" r="2" fill="#C9CACB"/>
<circle cx="886" cy="4" r="2" fill="#C9CACB"/>
<circle cx="1030" cy="4" r="2" fill="#C9CACB"/>
<circle cx="684" cy="4" r="2" fill="#C9CACB"/>
<circle cx="904" cy="4" r="2" fill="#C9CACB"/>
<circle cx="1048" cy="4" r="2" fill="#C9CACB"/>
<circle cx="738" cy="4" r="2" fill="#C9CACB"/>
<circle cx="702" cy="4" r="2" fill="#C9CACB"/>
<circle cx="922" cy="4" r="2" fill="#C9CACB"/>
<circle cx="1066" cy="4" r="2" fill="#C9CACB"/>
<circle cx="778" cy="4" r="2" fill="#C9CACB"/>
<circle cx="720" cy="4" r="2" fill="#C9CACB"/>
<circle cx="940" cy="4" r="2" fill="#C9CACB"/>
<circle cx="796" cy="4" r="2" fill="#C9CACB"/>
</svg>
