<svg width="50" height="50" viewBox="0 0 50 50" fill="none" xmlns="http://www.w3.org/2000/svg">
<path d="M49.4282 36.0899C47.5121 35.7256 46.0674 37.0311 44.2583 35.0857C43.7856 34.5777 43.1027 34.8641 42.8861 35.4828C41.3334 39.923 38.1034 37.7778 36.6234 34.6678C36.3367 34.0657 35.5249 34.1179 35.2264 34.6678C34.2034 37.4098 32.2337 37.7475 29.3166 35.6808C28.8533 35.2368 28.0932 35.3862 27.919 36.0851C26.6491 41.1823 22.2112 39.7819 20.844 35.5934C20.7752 35.3824 20.6271 35.2801 20.4733 35.2617C20.1622 34.8352 19.4576 34.7073 19.2149 35.3056C17.4659 39.6131 14.2197 38.9538 12.1992 35.3113C11.8345 34.654 11.0816 34.8819 10.8424 35.5057C9.14321 39.937 4.19203 39.8353 4.28019 34.5084C4.28987 33.9184 3.48382 33.8026 3.34751 34.3702C1.75267 41.0089 9.16624 42.1602 11.7343 37.2871C14.3869 40.5921 18.3646 41.2703 20.2616 36.8224C21.88 41.7006 27.1668 42.6601 29.1319 37.8062C31.6272 39.6329 34.0043 39.3459 35.8796 36.7507C38.1667 40.3286 42.242 41.6467 44.0511 37.2317C45.7114 38.4627 46.8128 37.6015 49.215 37.8125C50.1116 37.8916 50.3164 36.2591 49.4282 36.0899Z" fill="#00B2A0"/>
<path d="M48.6801 43.5752C47.8787 45.0062 47.6016 46.2886 45.8848 46.988C43.7716 47.8496 41.6682 45.7938 40.6268 44.1082C40.2675 43.5264 39.396 43.4146 39.0603 44.1082C37.5893 47.1487 34.3315 46.4062 32.9414 43.4719C32.5996 42.75 31.4439 42.8789 31.3019 43.7047C30.5207 48.2534 27.0135 48.7348 24.6645 45.4379C24.9209 44.5502 23.5835 43.946 23.2189 44.8149C21.2471 49.5149 17.3976 48.9898 15.1633 44.7955C14.7755 44.0676 13.9068 44.3228 13.6563 45.0095C11.8405 49.9887 9.01225 47.6201 7.42518 44.1928C7.11608 43.5249 6.23452 43.7562 6.04817 44.3883C5.18085 47.3321 3.75195 47.8817 1.3447 48.6433C0.891368 48.787 0.96139 49.6419 1.45991 49.5698C4.21811 49.1702 5.72456 48.6369 6.85189 46.4047C9.16792 50.3349 12.4012 51.1377 14.5708 47.0022C17.3839 50.8291 21.903 51.2654 24.142 46.7124C26.6291 50.3889 30.8 50.2079 32.4702 46.2016C34.625 48.9637 37.7612 49.3518 39.931 46.2607C43.1601 49.7889 49.7642 50.5787 49.9997 43.9645C50.029 43.1757 49.0347 42.9419 48.6801 43.5752Z" fill="#00B2A0"/>
<path d="M16.1682 7.50507C15.5789 7.67895 15.3465 8.12751 15.3645 8.5804C11.1888 9.20593 8.48554 13.383 8.16291 17.5845C7.72168 23.3329 12.5377 26.7097 17.7594 26.2809C23.0985 25.8428 26.5718 21.0025 26.4148 15.8007C26.2579 10.605 21.4033 5.95773 16.1682 7.50507ZM17.0376 23.653C13.2052 23.9717 10.726 21.3478 10.7993 17.5845C10.8762 13.6401 13.8572 11.0391 17.3127 9.99917C17.376 9.98006 17.4216 9.94738 17.473 9.9184C20.8416 10.4511 23.3892 11.7506 23.7471 15.8001C24.1187 20.0006 21.0767 23.3163 17.0376 23.653Z" fill="#00B2A0"/>
<path d="M11.3089 7.33132C10.6804 6.63796 9.98405 6.02877 9.27098 5.4276C8.56399 4.83135 7.81412 3.67771 6.81734 3.77205C6.28945 3.822 5.93185 4.16143 5.89506 4.70711C5.82512 5.74267 6.83224 6.25136 7.56477 6.77947C8.40221 7.3828 9.27219 7.92263 10.0494 8.60859C10.9118 9.37008 12.092 8.19485 11.3089 7.33132Z" fill="#00B2A0"/>
<path d="M5.53113 10.4497C5.86623 10.4907 5.57006 10.4414 5.48157 10.4134C5.34564 10.3699 5.21246 10.3178 5.07957 10.266C4.92905 10.2077 4.78005 10.1448 4.63135 10.0819C4.62132 10.0776 4.61585 10.0755 4.60095 10.0687C4.45924 9.79276 4.21567 9.57048 3.90216 9.4709C3.34235 9.29239 2.49092 8.86602 1.88579 9.05871C1.5437 9.16784 1.18519 9.45486 1.11859 9.83653C1.11859 9.83653 1.11829 9.83808 1.11829 9.83869C1.05504 10.2003 1.08241 10.6708 1.40078 10.9223C1.57806 11.0617 1.78545 11.1604 2.00165 11.2454C1.8265 11.2448 1.9679 11.2532 2.12632 11.2905C2.23853 11.3296 2.34922 11.3697 2.46477 11.4008C2.74331 11.4958 3.02154 11.5923 3.29856 11.6906C3.4576 11.7477 3.6215 11.7526 3.77992 11.7236C4.34947 11.8771 4.97314 12.051 5.53144 12.0165C6.54646 11.9536 6.50298 10.569 5.53113 10.4497Z" fill="#00B2A0"/>
<path d="M3.79167 19.2588C3.36534 19.6211 2.86786 19.905 2.38316 20.1772C2.13259 20.3181 1.87351 20.4639 1.60501 20.5666C1.44415 20.628 1.18811 20.5765 1.54206 20.6421C1.3663 20.6098 1.19967 20.6064 1.02482 20.5873C-0.449067 20.426 -0.314967 23.1242 1.30975 22.7222C1.90818 22.5742 2.51969 21.9952 3.02842 21.6244C3.61864 21.1943 4.20795 20.7241 4.69449 20.1741C5.25065 19.5458 4.41838 18.7258 3.79167 19.2588Z" fill="#00B2A0"/>
<path d="M7.54729 24.6062C7.04799 25.3831 6.59278 26.1883 6.1178 26.9804C5.60299 27.8383 4.73088 28.4781 4.61655 29.5047C4.54357 30.1601 5.25147 30.4847 5.77419 30.3987C6.84304 30.223 7.36454 28.8437 7.75529 27.9503C8.1585 27.0285 8.40633 26.0616 8.72926 25.1109C8.97739 24.3787 7.93135 24.0081 7.54729 24.6062Z" fill="#00B2A0"/>
<path d="M17.6496 27.3986C17.5443 26.8502 16.7078 26.8764 16.5853 27.3986C16.2635 28.7715 15.8868 30.1326 15.5708 31.5067C15.4945 31.8384 15.5602 32.2222 15.8196 32.4609C15.777 32.4032 15.7819 32.4146 15.8339 32.4945C16.1431 33.0068 16.793 32.9483 17.1135 32.4945C16.8206 32.9088 17.3208 32.2938 17.3388 32.2623C17.4568 32.0579 17.4668 31.8433 17.4793 31.614C17.5054 31.1392 17.5605 30.6656 17.6052 30.1924C17.693 29.2697 17.8259 28.3171 17.6496 27.3986Z" fill="#00B2A0"/>
<path d="M28.7574 28.2096C27.9927 27.0973 26.7782 26.3833 26.083 25.2346C25.6071 24.4478 24.5173 25.1332 24.8849 25.9446C25.2036 26.6478 25.6905 27.2317 26.1931 27.8073C26.433 28.082 26.6787 28.3502 26.8898 28.6487C27.1777 29.0559 27.296 29.5134 27.8573 29.5927C28.1803 29.6383 28.5488 29.5735 28.7118 29.2397C28.727 29.2088 28.7422 29.178 28.7571 29.1469C28.8964 28.8626 28.9499 28.4899 28.7574 28.2096Z" fill="#00B2A0"/>
<path d="M33.2071 19.9104C31.9199 19.9792 30.6324 20.0452 29.3452 20.1102C28.187 20.1688 28.187 21.8737 29.3452 21.9325C30.6327 21.9979 31.9199 22.0639 33.2071 22.132C34.6205 22.2075 34.6205 19.8355 33.2071 19.9104Z" fill="#00B2A0"/>
<path d="M33.208 7.09895C32.0403 7.07429 31.0964 8.49614 30.3967 9.32207C29.6448 10.2093 28.984 11.1709 28.2174 12.0465C27.6317 12.7155 28.5345 13.6419 29.1874 13.0299C29.9604 12.3048 30.6622 11.5079 31.4042 10.751C31.8232 10.3237 32.2568 9.89334 32.7324 9.53047C33.3172 9.08499 33.7766 8.9404 34.0366 8.20141C34.2297 7.65296 33.7328 7.11005 33.208 7.09895Z" fill="#00B2A0"/>
<path d="M27.5974 1.2963C26.9062 1.74579 26.4452 2.47583 25.9702 3.14329C25.4165 3.92143 24.8901 4.70327 24.2497 5.41296C23.5245 6.21669 24.6527 7.3731 25.4314 6.611C26.0359 6.01907 26.5711 5.37381 27.0957 4.70912C27.6588 3.99573 28.385 3.34245 28.8484 2.56431C29.3136 1.78371 28.3771 0.789458 27.5974 1.2963Z" fill="#00B2A0"/>
<path d="M18.9618 0.226597C18.6249 -0.0755323 18.184 -0.0755323 17.8471 0.226597C17.1857 0.819757 17.4907 1.85532 17.5457 2.64486C17.609 3.55064 17.6768 4.45548 17.758 5.36002C17.8337 6.20352 18.9752 6.20352 19.0509 5.36002C19.1321 4.45517 19.1999 3.55094 19.2632 2.64486C19.3182 1.85563 19.6232 0.819449 18.9618 0.226597Z" fill="#00B2A0"/>
</svg>
